<?xml version="1.0" standalone="no"?>
<!DOCTYPE svg PUBLIC "-//W3C//DTD SVG 20010904//EN"
 "http://www.w3.org/TR/2001/REC-SVG-20010904/DTD/svg10.dtd">
<svg version="1.0" xmlns="http://www.w3.org/2000/svg"
 width="260.000000pt" height="260.000000pt" viewBox="0 0 260.000000 260.000000"
 preserveAspectRatio="xMidYMid meet">
<metadata>
Created by potrace 1.14, written by Peter Selinger 2001-2017
</metadata>
<g transform="translate(0.000000,260.000000) scale(0.100000,-0.100000)"
fill="#000000" stroke="none">
<path d="M1585 2005 c-107 -16 -156 -31 -243 -71 -185 -85 -330 -235 -424
-437 -16 -36 -16 -38 0 -44 9 -3 67 -25 127 -48 61 -24 200 -77 310 -119 110
-43 209 -81 220 -86 20 -9 189 -74 315 -123 134 -51 369 -142 474 -183 60 -24
112 -42 116 -39 7 4 25 61 36 115 41 199 17 395 -71 575 -121 248 -381 435
-640 460 -110 11 -143 11 -220 0z"/>
<path d="M77 1652 c-62 -222 -35 -432 81 -640 131 -236 380 -399 652 -428 66
-7 198 -7 210 1 5 3 28 8 52 11 24 3 50 8 58 11 8 3 20 7 25 9 48 15 111 39
115 43 3 3 21 15 40 25 19 11 44 24 54 30 47 26 143 116 200 188 38 47 106
171 106 192 0 6 -24 20 -52 30 -55 19 -368 140 -403 156 -11 5 -81 32 -155 60
-144 55 -188 72 -375 145 -66 26 -208 81 -315 122 -107 41 -206 80 -220 86
-53 22 -57 20 -73 -41z"/>
</g>
</svg>
