<svg xmlns="http://www.w3.org/2000/svg" xmlns:xlink="http://www.w3.org/1999/xlink" width="470" height="315" viewBox="0 0 470 315"><defs><linearGradient id="a" x1="0.854" y1="0.018" x2="0.848" y2="1" gradientUnits="objectBoundingBox"><stop offset="0" stop-color="#9691e3"/><stop offset="0.477" stop-color="#3d82a7"/><stop offset="1" stop-color="#3db4bc"/></linearGradient><linearGradient id="b" x1="0.365" x2="0.383" y2="1.027" gradientUnits="objectBoundingBox"><stop offset="0" stop-color="#81bc3d"/><stop offset="0.475" stop-color="#4d818e"/><stop offset="0.932" stop-color="#2a2360"/><stop offset="1" stop-color="#291f5e"/></linearGradient></defs><g transform="translate(-0.42)"><text transform="translate(227.42 256)" fill="#fff" font-size="237" font-family="NirmalaUI-Semilight, Nirmala UI" font-weight="300"><tspan x="-134.759" y="0">k</tspan><tspan y="0" font-family="NirmalaUI-Bold, Nirmala UI" font-weight="700">V</tspan></text><path d="M92,184h0a91.57,91.57,0,0,1-51.438-15.712A92.267,92.267,0,0,1,7.23,127.81a91.879,91.879,0,0,1,8.482-87.248A92.268,92.268,0,0,1,56.189,7.23,91.425,91.425,0,0,1,92,0V184Z" transform="translate(0.42 78)" fill="url(#a)"/><path d="M0,0A92,92,0,1,1,0,184Z" transform="translate(378.42 78)" fill="url(#b)"/></g></svg>