<svg xmlns="http://www.w3.org/2000/svg" xmlns:xlink="http://www.w3.org/1999/xlink" width="620" height="244" viewBox="0 0 620 244"><defs><linearGradient id="a" x1="0.365" x2="0.383" y2="1.027" gradientUnits="objectBoundingBox"><stop offset="0" stop-color="#81bc3d"/><stop offset="0.475" stop-color="#4d818e"/><stop offset="0.932" stop-color="#2a2360"/><stop offset="1" stop-color="#291f5e"/></linearGradient><linearGradient id="b" x1="0.854" y1="0.018" x2="0.848" y2="1" gradientUnits="objectBoundingBox"><stop offset="0" stop-color="#9691e3"/><stop offset="0.477" stop-color="#3d82a7"/><stop offset="1" stop-color="#3db4bc"/></linearGradient></defs><g transform="translate(-0.368 0)"><path d="M0,0C55.781,0,101,44.323,101,99S55.781,198,0,198Z" transform="translate(519.368 24)" fill="url(#a)"/><path d="M97,198h0a94.715,94.715,0,0,1-37.757-7.78,96.407,96.407,0,0,1-16.477-9.128A98.158,98.158,0,0,1,28.411,169,100.37,100.37,0,0,1,16.566,43.648,99.3,99.3,0,0,1,28.411,29,98.158,98.158,0,0,1,42.766,16.907,96.408,96.408,0,0,1,59.243,7.78,94.715,94.715,0,0,1,97,0V198Z" transform="translate(0.368 24)" fill="url(#b)"/><text transform="translate(307.368 113)" font-size="105" font-family="NirmalaUI-Semilight, Nirmala UI" font-weight="300"><tspan x="-150.886" y="0">kultige</tspan><tspan font-family="NirmalaUI-Bold, Nirmala UI" font-weight="700"><tspan x="-187.544" y="105">VIDEOS</tspan></tspan></text></g></svg>