<svg xmlns="http://www.w3.org/2000/svg" xmlns:xlink="http://www.w3.org/1999/xlink" width="614" height="242" viewBox="0 0 614 242"><defs><linearGradient id="a" x1="0.365" x2="0.383" y2="1.027" gradientUnits="objectBoundingBox"><stop offset="0" stop-color="#81bc3d"/><stop offset="0.475" stop-color="#4d818e"/><stop offset="0.932" stop-color="#2a2360"/><stop offset="1" stop-color="#291f5e"/></linearGradient><linearGradient id="b" x1="0.854" y1="0.018" x2="0.848" y2="1" gradientUnits="objectBoundingBox"><stop offset="0" stop-color="#9691e3"/><stop offset="0.477" stop-color="#3d82a7"/><stop offset="1" stop-color="#3db4bc"/></linearGradient></defs><g transform="translate(0.368)"><path d="M0,0C55.229,0,100,43.876,100,98S55.229,196,0,196Z" transform="translate(513.632 23)" fill="url(#a)"/><path d="M96,196h0a93.721,93.721,0,0,1-37.368-7.7,95.407,95.407,0,0,1-16.307-9.035A97.152,97.152,0,0,1,28.118,167.3,99.372,99.372,0,0,1,16.4,43.207,98.3,98.3,0,0,1,28.118,28.7,97.151,97.151,0,0,1,42.325,16.737,95.409,95.409,0,0,1,58.632,7.7,93.721,93.721,0,0,1,96,0V196Z" transform="translate(-0.368 23)" fill="url(#b)"/><text transform="translate(302.632 112)" fill="#fff" font-size="104" font-family="NirmalaUI-Semilight, Nirmala UI" font-weight="300"><tspan x="-149.449" y="0">kultige</tspan><tspan font-family="NirmalaUI-Bold, Nirmala UI" font-weight="700"><tspan x="-185.758" y="104">VIDEOS</tspan></tspan></text></g></svg>